<svg
        xmlns="http://www.w3.org/2000/svg"
        xmlns:xlink="http://www.w3.org/1999/xlink"
        width="14px" height="10px">
    <path fill-rule="evenodd"  fill="rgb(229, 52, 85)"
          d="M13.747,1.384 L12.518,0.241 C12.350,0.084 12.145,0.005 11.904,0.005 C11.663,0.005 11.458,0.084 11.289,0.241 L5.361,5.763 L2.704,3.283 C2.535,3.126 2.330,3.048 2.089,3.048 C1.848,3.048 1.643,3.126 1.475,3.283 L0.246,4.426 C0.077,4.583 -0.007,4.774 -0.007,4.998 C-0.007,5.222 0.077,5.413 0.246,5.569 L3.517,8.612 L4.746,9.755 C4.915,9.912 5.120,9.990 5.361,9.990 C5.602,9.990 5.807,9.912 5.975,9.755 L7.204,8.612 L13.747,2.527 C13.916,2.370 14.000,2.179 14.000,1.955 C14.000,1.731 13.916,1.541 13.747,1.384 L13.747,1.384 Z"/>
</svg>
